# xmcd CD database file
#
# Track frame offsets:
#	150
#	19992
#	40526
#	50882
#	62936
#	78147
#	92999
#	113374
#	128036
#	141233
#	165417
#	180970
#	196823
#	206985
#	229490
#
# Disc length: 3334 seconds
#
# Revision: 0
# Processed by: cddbd v1.5.2PL0 Copyright (c) Steve Scherf et al.
# Submitted via: CDex 1.51
#
DISCID=ca0d040f
DTITLE=Celtic Woman - Believe
DYEAR=2011
DGENRE=New Age
TTITLE0=Princess Toyotomi
TTITLE1=You Raise Me Up
TTITLE2=Brahms' Lullaby
TTITLE3=Over The Rainbow
TTITLE4=Beyond The Sea
TTITLE5=When You Wish Upon A Star
TTITLE6=When You Believe
TTITLE7=Goodnight My Angel
TTITLE8=Ave Maria
TTITLE9=The Sky And The Dawn And The Sun
TTITLE10=Danny Boy
TTITLE11=Walking In The Air
TTITLE12=Somewhere
TTITLE13=Amazing Grace
TTITLE14=Princess Toyotomi (Film Version)
EXTD=YEAR: 2011
EXTT0=
EXTT1=
EXTT2=
EXTT3=
EXTT4=
EXTT5=
EXTT6=
EXTT7=
EXTT8=
EXTT9=
EXTT10=
EXTT11=
EXTT12=
EXTT13=
EXTT14=
PLAYORDER=
